<svg id="visual" viewBox="0 0 900 600" width="900" height="600" xmlns="http://www.w3.org/2000/svg" xmlns:xlink="http://www.w3.org/1999/xlink" version="1.1"><rect x="0" y="0" width="900" height="600" fill="#FFFFFF"></rect><defs><linearGradient id="grad1_0" x1="33.3%" y1="100%" x2="100%" y2="0%"><stop offset="20%" stop-color="#ffffff" stop-opacity="1"></stop><stop offset="80%" stop-color="#ffffff" stop-opacity="1"></stop></linearGradient></defs><defs><linearGradient id="grad2_0" x1="0%" y1="100%" x2="66.7%" y2="0%"><stop offset="20%" stop-color="#ffffff" stop-opacity="1"></stop><stop offset="80%" stop-color="#ffffff" stop-opacity="1"></stop></linearGradient></defs><g transform="translate(900, 600)"><path d="M-297.5 0C-280.1 -32 -262.7 -64.1 -252.2 -104.5C-241.7 -144.9 -238.1 -193.6 -210.3 -210.3C-182.5 -227 -130.5 -211.6 -91.5 -220.8C-52.4 -230 -26.2 -263.7 0 -297.5L0 0Z" fill="#6600FF"></path></g><g transform="translate(0, 0)"><path d="M297.5 0C267.7 31 238 62 219.9 91.1C201.7 120.2 195.1 147.5 181 181C166.9 214.6 145.3 254.4 113.8 274.8C82.4 295.3 41.2 296.4 0 297.5L0 0Z" fill="#6600FF"></path></g></svg>